<?xml version="1.0" encoding="utf-8"?>
<!-- Generator: Adobe Illustrator 23.1.0, SVG Export Plug-In . SVG Version: 6.00 Build 0)  -->
<svg version="1.1" id="Clickatell_Logo_-_Dark" xmlns="http://www.w3.org/2000/svg" xmlns:xlink="http://www.w3.org/1999/xlink"
	 x="0px" y="0px" viewBox="0 0 36.3 24" style="enable-background:new 0 0 36.3 24;" xml:space="preserve">
<style type="text/css">
	.st0{fill:#2CC4EC;}
	.st1{fill:#8CC63F;}
</style>
<path id="Path_8" class="st0" d="M16.2,1.8C10.9-1,4.3,0.9,1.5,6.2C1.4,6.4,1.3,6.5,1.3,6.7c-2.8,5.6-0.8,12.5,4.7,15.6
	c2.6,1.4,5.6,1.7,8.4,0.8l0,0c0.7-0.2,1.3-0.5,1.9-0.9c-1-0.8-1.9-1.8-2.5-3c0,0,0,0,0,0c-2,0.8-4.3,0.7-6.1-0.3
	c-3.7-2.1-5-6.7-3.1-10.4c1.7-3.6,6-5.2,9.6-3.5c0.1,0.1,0.2,0.1,0.3,0.2c2.1,1.2,3.6,3.3,3.9,5.7l3.7,2C22.5,8.4,20.2,4,16.2,1.8"
	/>
<path id="Path_9" class="st1" d="M20.2,22.3c5.3,2.8,11.9,0.8,14.7-4.5c0.1-0.2,0.2-0.3,0.2-0.5c2.8-5.6,0.7-12.5-4.8-15.6
	c-2.6-1.4-5.6-1.7-8.4-0.7l0,0c-0.7,0.2-1.3,0.5-1.9,0.9c1,0.8,1.9,1.8,2.5,3l0,0c2-0.9,4.3-0.8,6.2,0.3c3.7,2.1,5.1,6.6,3.2,10.4
	c-1.7,3.6-6,5.2-9.6,3.5c-0.1-0.1-0.2-0.1-0.3-0.2c-2.1-1.2-3.6-3.3-3.9-5.7l-3.7-2C13.8,15.7,16.2,20.1,20.2,22.3"/>
</svg>
