<svg xmlns="http://www.w3.org/2000/svg" width="74" height="71" viewBox="0 0 74 71"><defs><clipPath id="e4yua"><path d="M.42.43h59.637v24.711H.42z"/></clipPath></defs><g><g><g><g/><g clip-path="url(#e4yua)"><path fill="#ff6c8f" d="M39.222 24.92c.51.287 1.13.295 1.645.021l18.277-9.681a1.717 1.717 0 0 0-1.608-3.035l-17.463 9.257L2.979.65A1.719 1.719 0 0 0 1.3 3.647z"/></g></g><g><path fill="#a871ff" d="M33.817 32.464L33.63 51.51a1.716 1.716 0 1 0 3.435.032l.187-20.107a1.716 1.716 0 0 0-.877-1.513L9.13 14.59a1.717 1.717 0 0 0-2.34.658 1.716 1.716 0 0 0 .655 2.338z"/></g><g><path fill="#2cb8dd" d="M43.927 29.808a1.72 1.72 0 0 0-.877 1.502l.112 37.11a1.72 1.72 0 0 0 3.437-.01l-.12-36.08 26.257-14.743a1.718 1.718 0 1 0-1.68-2.996z"/></g></g></g></svg>